<svg width="24" height="24" viewBox="0 0 24 24" fill="none" xmlns="http://www.w3.org/2000/svg">
<g clip-path="url(#clip0_3199_43607)">
<path d="M12.2738 1.78125C14.5369 1.78125 17.6639 2.07891 18.667 2.27953C18.6703 2.28 18.6736 2.28094 18.6769 2.28141C20.0442 2.54672 21.4467 3.88594 21.7453 5.20969C22.065 6.75422 22.2155 8.29359 22.2188 10.0538C22.2155 11.8134 22.065 13.3533 21.7453 14.8978C21.4467 16.2211 20.0442 17.5608 18.6769 17.8261C18.6736 17.8266 18.6703 17.8275 18.667 17.828C18.067 17.948 16.8056 18.0905 15.4537 18.1912C14.8936 18.233 14.3855 18.5367 14.0836 19.0106C13.9219 19.2642 13.7494 19.5305 13.5703 19.8019C12.9755 20.7028 12.4481 21.4519 12.0005 22.0331C11.5528 21.4523 11.0255 20.7028 10.4306 19.8019C10.2511 19.53 10.0786 19.2638 9.91687 19.0106C9.615 18.5367 9.10734 18.233 8.54672 18.1912C7.19484 18.0905 5.93344 17.948 5.33344 17.828C5.33016 17.8275 5.32688 17.8266 5.32359 17.8261C3.95625 17.5608 2.55375 16.2216 2.25516 14.8983C1.93547 13.3537 1.785 11.8139 1.78172 10.0542C1.785 8.29406 1.93547 6.75469 2.25516 5.21016C2.55375 3.88688 3.95625 2.54719 5.32406 2.28188C5.32734 2.28141 5.33063 2.28047 5.33391 2.28C6.3375 2.07938 9.46406 1.78172 11.7272 1.78172C11.8134 1.78172 11.8978 1.78172 11.9808 1.78313H12.0005C12.0005 1.78313 12.0136 1.78313 12.0202 1.78313C12.1031 1.78219 12.1875 1.78172 12.2738 1.78172M11.7272 0C9.43641 0 6.18141 0.293437 4.98469 0.5325C2.94094 0.929062 0.964687 2.79609 0.51375 4.83422C0.256406 6.07172 0.00421875 7.75547 0 10.0538C0.00375 12.352 0.256406 14.0353 0.513281 15.2728C0.964687 17.3109 2.94047 19.178 4.98422 19.5745C5.65641 19.7091 6.97875 19.8605 8.41406 19.9673C8.57672 20.2228 8.75297 20.4947 8.94375 20.783C9.70547 21.9366 10.2886 22.7405 10.7302 23.3006C11.0977 23.7666 11.5491 23.9995 12 23.9995C12.4509 23.9995 12.9023 23.7666 13.2698 23.3006C13.7114 22.7405 14.2941 21.9366 15.0563 20.783C15.247 20.4942 15.4228 20.2228 15.5859 19.9673C17.0217 19.8605 18.3436 19.7091 19.0163 19.5745C21.06 19.178 23.0358 17.3109 23.4872 15.2728C23.7441 14.0353 23.9967 12.352 24.0005 10.0538C23.9967 7.75547 23.7441 6.07219 23.4872 4.83469C23.0358 2.79656 21.06 0.929531 19.0163 0.532969C17.8195 0.293437 14.5645 0 12.2738 0C12.1809 0 12.09 0.00046875 12.0005 0.00140625C11.9109 0.00046875 11.8195 0 11.7272 0Z" fill="#ACB1C6"/>
<path d="M10.6734 15.406C10.7241 15.1205 10.9828 14.8618 11.2683 14.8111C11.4412 14.7825 11.677 14.7554 11.9991 14.7549C12.3206 14.7549 12.5564 14.7821 12.7298 14.8111C13.0153 14.8618 13.2741 15.1205 13.3247 15.406C13.3533 15.5789 13.3805 15.8147 13.3809 16.1368C13.3809 16.4583 13.3538 16.6941 13.3247 16.8675C13.2741 17.153 13.0153 17.4118 12.7298 17.4624C12.5569 17.491 12.3211 17.5182 11.9991 17.5186C11.6775 17.5186 11.4417 17.4914 11.2683 17.4624C10.9828 17.4118 10.7241 17.153 10.6734 16.8675C10.6448 16.6946 10.6177 16.4588 10.6172 16.1368C10.6172 15.8152 10.6444 15.5794 10.6734 15.406Z" fill="#ACB1C6"/>
<path d="M12 13.0222C11.5083 13.0222 11.1094 12.6233 11.1094 12.1316V4.25708C11.1094 3.76536 11.5083 3.36646 12 3.36646C12.4917 3.36646 12.8906 3.76536 12.8906 4.25708V12.1316C12.8906 12.6233 12.4917 13.0222 12 13.0222Z" fill="#ACB1C6"/>
</g>
<defs>
<clipPath id="clip0_3199_43607">
<rect width="24" height="24" fill="white"/>
</clipPath>
</defs>
</svg>
