<svg width="24" height="24" viewBox="0 0 24 24" fill="none" xmlns="http://www.w3.org/2000/svg">
<path d="M19.0711 14.9289C17.9819 13.8398 16.6855 13.0335 15.2711 12.5454C16.786 11.502 17.7812 9.75578 17.7812 7.78125C17.7812 4.59348 15.1878 2 12 2C8.81223 2 6.21875 4.59348 6.21875 7.78125C6.21875 9.75578 7.21402 11.502 8.72898 12.5454C7.31453 13.0335 6.01813 13.8398 4.92895 14.9289C3.0402 16.8177 2 19.3289 2 22H3.5625C3.5625 17.3475 7.34754 13.5625 12 13.5625C16.6525 13.5625 20.4375 17.3475 20.4375 22H22C22 19.3289 20.9598 16.8177 19.0711 14.9289ZM12 12C9.67379 12 7.78125 10.1075 7.78125 7.78125C7.78125 5.455 9.67379 3.5625 12 3.5625C14.3262 3.5625 16.2188 5.455 16.2188 7.78125C16.2188 10.1075 14.3262 12 12 12Z" fill="#ACB1C6"/>
</svg>
