<svg width="24" height="24" viewBox="0 0 24 24" fill="none" xmlns="http://www.w3.org/2000/svg">
<g clip-path="url(#clip0_3199_10546)">
<path d="M8.79746 11.1977C8.58462 11.1977 8.38051 11.1132 8.23001 10.9627C8.07951 10.8122 7.99496 10.6081 7.99496 10.3952V7.99522C7.98415 7.88383 7.99677 7.7714 8.03199 7.66517C8.06722 7.55894 8.12427 7.46125 8.19949 7.37837C8.27471 7.2955 8.36644 7.22928 8.46877 7.18396C8.57111 7.13864 8.68179 7.11523 8.79371 7.11523C8.90563 7.11523 9.01631 7.13864 9.11865 7.18396C9.22098 7.22928 9.31271 7.2955 9.38793 7.37837C9.46315 7.46125 9.52021 7.55894 9.55543 7.66517C9.59065 7.7714 9.60327 7.88383 9.59246 7.99522V10.3952C9.59247 10.6068 9.50895 10.8098 9.36007 10.96C9.21119 11.1103 9.00899 11.1957 8.79746 11.1977Z" fill="#ACB1C6"/>
<path d="M11.9998 11.1976C11.7869 11.1976 11.5828 11.1131 11.4323 10.9626C11.2818 10.8121 11.1973 10.6079 11.1973 10.3951V7.20011C11.2165 7.00162 11.309 6.81741 11.4567 6.68338C11.6043 6.54935 11.7966 6.4751 11.996 6.4751C12.1954 6.4751 12.3877 6.54935 12.5354 6.68338C12.683 6.81741 12.7755 7.00162 12.7948 7.20011V10.4026C12.7928 10.6128 12.7084 10.8139 12.5598 10.9626C12.4111 11.1113 12.21 11.1957 11.9998 11.1976Z" fill="#ACB1C6"/>
<path d="M15.2027 11.1976C14.9899 11.1976 14.7858 11.1131 14.6353 10.9626C14.4848 10.8121 14.4002 10.608 14.4002 10.3951V5.60265C14.3894 5.49125 14.402 5.37882 14.4373 5.27259C14.4725 5.16636 14.5295 5.06867 14.6048 4.9858C14.68 4.90292 14.7717 4.8367 14.874 4.79138C14.9764 4.74607 15.0871 4.72266 15.199 4.72266C15.3109 4.72266 15.4216 4.74607 15.5239 4.79138C15.6263 4.8367 15.718 4.90292 15.7932 4.9858C15.8684 5.06867 15.9255 5.16636 15.9607 5.27259C15.9959 5.37882 16.0085 5.49125 15.9977 5.60265V10.4026C15.9958 10.6129 15.9114 10.814 15.7627 10.9626C15.6141 11.1113 15.413 11.1957 15.2027 11.1976Z" fill="#ACB1C6"/>
<path d="M18.3979 24H5.6029C4.75354 24 3.93897 23.6626 3.33839 23.062C2.7378 22.4614 2.4004 21.6469 2.4004 20.7975V6.3C2.39949 5.71309 2.52807 5.1332 2.77697 4.60168C3.02588 4.07016 3.38898 3.6001 3.8404 3.225L6.6004 0.93C7.31853 0.331549 8.22309 0.00261963 9.1579 0L18.3979 0C19.2473 0 20.0618 0.337405 20.6624 0.937991C21.263 1.53858 21.6004 2.35314 21.6004 3.2025V20.7975C21.6004 21.6469 21.263 22.4614 20.6624 23.062C20.0618 23.6626 19.2473 24 18.3979 24ZM9.1579 1.5975C8.60926 1.60616 8.08004 1.80197 7.6579 2.1525L4.8604 4.455C4.58974 4.68013 4.37211 4.96222 4.22302 5.28114C4.07393 5.60006 3.99706 5.94795 3.9979 6.3V20.7975C3.99987 21.2206 4.16881 21.6258 4.46797 21.9249C4.76713 22.2241 5.17232 22.393 5.5954 22.395H18.3979C18.821 22.393 19.2262 22.2241 19.5253 21.9249C19.8245 21.6258 19.9934 21.2206 19.9954 20.7975V3.2025C19.9934 2.77942 19.8245 2.37424 19.5253 2.07508C19.2262 1.77591 18.821 1.60697 18.3979 1.605L9.1579 1.5975Z" fill="#ACB1C6"/>
<path d="M16.8003 19.1999H7.2003C7.08891 19.2107 6.97648 19.1981 6.87025 19.1629C6.76401 19.1276 6.66632 19.0706 6.58345 18.9954C6.50058 18.9201 6.43436 18.8284 6.38904 18.7261C6.34372 18.6237 6.32031 18.5131 6.32031 18.4011C6.32031 18.2892 6.34372 18.1785 6.38904 18.0762C6.43436 17.9739 6.50058 17.8821 6.58345 17.8069C6.66632 17.7317 6.76401 17.6746 6.87025 17.6394C6.97648 17.6042 7.08891 17.5916 7.2003 17.6024H16.8003C16.9117 17.5916 17.0241 17.6042 17.1304 17.6394C17.2366 17.6746 17.3343 17.7317 17.4172 17.8069C17.5 17.8821 17.5662 17.9739 17.6116 18.0762C17.6569 18.1785 17.6803 18.2892 17.6803 18.4011C17.6803 18.5131 17.6569 18.6237 17.6116 18.7261C17.5662 18.8284 17.5 18.9201 17.4172 18.9954C17.3343 19.0706 17.2366 19.1276 17.1304 19.1629C17.0241 19.1981 16.9117 19.2107 16.8003 19.1999Z" fill="#ACB1C6"/>
<path d="M16.7996 15.2023H7.19962C7.00113 15.1831 6.81692 15.0906 6.68289 14.9429C6.54886 14.7953 6.47461 14.603 6.47461 14.4036C6.47461 14.2042 6.54886 14.0119 6.68289 13.8642C6.81692 13.7166 7.00113 13.6241 7.19962 13.6048H16.7996C16.911 13.594 17.0234 13.6066 17.1297 13.6419C17.2359 13.6771 17.3336 13.7341 17.4165 13.8094C17.4993 13.8846 17.5656 13.9763 17.6109 14.0786C17.6562 14.181 17.6796 14.2917 17.6796 14.4036C17.6796 14.5155 17.6562 14.6262 17.6109 14.7285C17.5656 14.8308 17.4993 14.9226 17.4165 14.9978C17.3336 15.073 17.2359 15.1301 17.1297 15.1653C17.0234 15.2005 16.911 15.2131 16.7996 15.2023Z" fill="#ACB1C6"/>
</g>
<defs>
<clipPath id="clip0_3199_10546">
<rect width="24" height="24" fill="white"/>
</clipPath>
</defs>
</svg>
