<svg width="24" height="24" viewBox="0 0 24 24" fill="none" xmlns="http://www.w3.org/2000/svg">
<g clip-path="url(#clip0_3199_43657)">
<path d="M22.9441 13.9076L21.9457 13.0857C21.2618 12.5227 21.263 11.4762 21.9457 10.9143L22.9441 10.0924C23.6546 9.50747 23.8363 8.50444 23.3762 7.70733L21.4047 4.29267C20.9445 3.49561 19.9848 3.15155 19.1231 3.47433L17.9121 3.92803C17.0826 4.23872 16.177 3.7147 16.0316 2.84236L15.8191 1.5667C15.6677 0.658922 14.89 0 13.9696 0H10.0267C9.10633 0 8.32848 0.658922 8.17722 1.56675L7.96459 2.84236C7.81895 3.71625 6.91211 4.2382 6.08416 3.92808L4.87314 3.47433C4.01144 3.15155 3.05181 3.49566 2.59155 4.29267L0.620124 7.70728C0.159952 8.5043 0.34164 9.50737 1.05222 10.0924L2.05061 10.9143C2.73461 11.4773 2.73325 12.5237 2.05061 13.0856L1.05217 13.9075C0.34164 14.4925 0.159905 15.4956 0.620077 16.2926L2.59155 19.7073C3.05176 20.5043 4.0112 20.8484 4.87314 20.5256L6.08411 20.0719C6.91375 19.7611 7.81919 20.2855 7.96455 21.1576L8.17717 22.4332C8.32848 23.3411 9.10633 24 10.0267 24H13.9696C14.8899 24 15.6677 23.3411 15.819 22.4333L16.0316 21.1577C16.1772 20.284 17.084 19.7617 17.9121 20.072L19.1231 20.5257C19.985 20.8485 20.9445 20.5044 21.4047 19.7073L23.3762 16.2926C23.8363 15.4956 23.6546 14.4925 22.9441 13.9076ZM19.7809 18.7698L18.5699 18.3161C16.634 17.5909 14.5213 18.8144 14.1822 20.8494L13.9696 22.125H10.0267L9.81409 20.8494C9.4743 18.8105 7.3585 17.5923 5.42636 18.3161L4.21534 18.7698L2.24392 15.3552L3.24231 14.5333C4.83836 13.2194 4.83503 10.7779 3.24231 9.46673L2.24392 8.64483L4.21539 5.23017L5.42636 5.68388C7.3623 6.40903 9.47495 5.18559 9.81409 3.15061L10.0267 1.875H13.9696L14.1821 3.15061C14.522 5.18977 16.6379 6.40753 18.5699 5.68388L19.7809 5.23017L21.7528 8.64436C21.7528 8.64436 21.7526 8.6445 21.7523 8.64478L20.7539 9.46669C19.1579 10.7805 19.1611 13.222 20.7539 14.5332L21.7523 15.3551L19.7809 18.7698ZM11.9981 7.37498C9.44791 7.37498 7.37312 9.44977 7.37312 12C7.37312 14.5502 9.44791 16.625 11.9981 16.625C14.5484 16.625 16.6232 14.5502 16.6232 12C16.6232 9.44977 14.5484 7.37498 11.9981 7.37498ZM11.9981 14.75C10.4818 14.75 9.24812 13.5164 9.24812 12C9.24812 10.4836 10.4818 9.24998 11.9981 9.24998C13.5145 9.24998 14.7482 10.4836 14.7482 12C14.7482 13.5164 13.5145 14.75 11.9981 14.75Z" fill="#ACB1C6"/>
</g>
<defs>
<clipPath id="clip0_3199_43657">
<rect width="24" height="24" fill="white"/>
</clipPath>
</defs>
</svg>
