<svg width="20" height="24" viewBox="0 0 20 24" fill="none" xmlns="http://www.w3.org/2000/svg">
<path d="M16.3959 24H3.60094C2.75159 24 1.93702 23.6626 1.33643 23.062C0.735848 22.4614 0.398442 21.6469 0.398442 20.7975V6.3C0.397532 5.71309 0.526114 5.1332 0.775022 4.60168C1.02393 4.07016 1.38703 3.6001 1.83844 3.225L4.59844 0.93C5.31658 0.331549 6.22114 0.00261963 7.15594 0L16.3959 0C17.2453 0 18.0599 0.337405 18.6605 0.937991C19.261 1.53858 19.5984 2.35314 19.5984 3.2025V20.7975C19.5984 21.6469 19.261 22.4614 18.6605 23.062C18.0599 23.6626 17.2453 24 16.3959 24ZM7.15594 1.5975C6.60731 1.60616 6.07809 1.80197 5.65594 2.1525L2.85844 4.455C2.58779 4.68013 2.37016 4.96222 2.22107 5.28114C2.07198 5.60006 1.99511 5.94795 1.99594 6.3V20.7975C1.99791 21.2206 2.16686 21.6258 2.46602 21.9249C2.76518 22.2241 3.17037 22.393 3.59344 22.395H16.3959C16.819 22.393 17.2242 22.2241 17.5234 21.9249C17.8225 21.6258 17.9915 21.2206 17.9934 20.7975V3.2025C17.9915 2.77942 17.8225 2.37424 17.5234 2.07508C17.2242 1.77591 16.819 1.60697 16.3959 1.605L7.15594 1.5975Z" fill="#FE0B7A"/>
</svg>
