<svg width="24" height="24" viewBox="0 0 24 24" fill="none" xmlns="http://www.w3.org/2000/svg">
<path d="M13.5883 11.1593C13.3963 11.1593 13.2043 11.0862 13.0581 10.9396C11.8884 9.76997 9.98531 9.7696 8.81531 10.9396C8.52281 11.2325 8.04731 11.2325 7.75481 10.9396C7.46194 10.6467 7.46194 10.172 7.75481 9.8791C9.50944 8.1241 12.3643 8.12447 14.1186 9.8791C14.4114 10.172 14.4114 10.6467 14.1186 10.9396C13.9723 11.0862 13.7799 11.1593 13.5883 11.1593Z" fill="#ACB1C6"/>
<path d="M13.0617 15.4376C11.9093 15.4376 10.7569 14.9988 9.87981 14.1217C9.58694 13.8288 9.58694 13.3541 9.87981 13.0612C10.1723 12.7683 10.6478 12.7683 10.9403 13.0612C12.1099 14.2308 14.0131 14.2312 15.1831 13.0612C15.4756 12.7683 15.9511 12.7683 16.2436 13.0612C16.5364 13.3541 16.5364 13.8288 16.2436 14.1217C15.3661 14.9988 14.2137 15.4376 13.0617 15.4376Z" fill="#ACB1C6"/>
<path d="M15.7108 14.3413C15.5188 14.3413 15.3268 14.2681 15.1806 14.1215C14.8877 13.8286 14.8877 13.3539 15.1806 13.061L19.3701 8.87151C19.6626 8.57864 20.1381 8.57864 20.4306 8.87151C20.7235 9.16439 20.7235 9.63914 20.4306 9.93201L16.2411 14.1215C16.0948 14.2681 15.9028 14.3413 15.7108 14.3413Z" fill="#ACB1C6"/>
<path d="M9.40225 20.6516C9.21025 20.6516 9.01825 20.5785 8.872 20.4318C8.57912 20.139 8.57912 19.6642 8.872 19.3713L11.2139 17.0295C11.5064 16.7366 11.9819 16.7366 12.2744 17.0295C12.5672 17.3223 12.5672 17.7971 12.2744 18.09L9.9325 20.4318C9.78625 20.5785 9.59425 20.6516 9.40225 20.6516Z" fill="#ACB1C6"/>
<path d="M4.09756 15.3485C3.90556 15.3485 3.71356 15.2753 3.56731 15.1287C3.27444 14.8358 3.27444 14.3611 3.56731 14.0682L7.75681 9.87908C8.04969 9.58621 8.52481 9.58621 8.81731 9.87908C9.11019 10.172 9.11019 10.6467 8.81731 10.9396L4.62781 15.1287C4.48119 15.275 4.28919 15.3485 4.09756 15.3485Z" fill="#ACB1C6"/>
<path d="M12.2538 7.19054C12.0618 7.19054 11.8702 7.11742 11.7236 6.97117C11.4307 6.67829 11.4307 6.20354 11.7236 5.91029L14.0654 3.56804C14.3583 3.27517 14.8331 3.27517 15.1263 3.56804C15.4192 3.86092 15.4192 4.33567 15.1263 4.62892L12.7844 6.97117C12.6378 7.11704 12.4454 7.19054 12.2538 7.19054Z" fill="#ACB1C6"/>
<path d="M6.74906 21.7257C5.58919 21.7257 4.42931 21.2944 3.56719 20.4319C1.84219 18.7069 1.84219 15.7928 3.56719 14.0678C3.85969 13.7749 4.33519 13.7749 4.62769 14.0678C4.92056 14.3607 4.92056 14.8354 4.62769 15.1283C3.47794 16.2781 3.47794 18.2213 4.62769 19.371C5.77744 20.5208 7.72069 20.5208 8.87044 19.371C9.16294 19.0782 9.63844 19.0782 9.93094 19.371C10.2238 19.6639 10.2238 20.1387 9.93094 20.4316C9.06881 21.2944 7.90894 21.7257 6.74906 21.7257Z" fill="#ACB1C6"/>
<path d="M19.9008 10.1517C19.7088 10.1517 19.5168 10.0785 19.3706 9.93191C19.0777 9.63904 19.0777 9.16429 19.3706 8.87141C20.5203 7.72166 20.5203 5.77841 19.3706 4.62866C18.2208 3.47891 16.2776 3.47891 15.1278 4.62866C14.8353 4.92154 14.3598 4.92154 14.0673 4.62866C13.7744 4.33579 13.7744 3.86104 14.0673 3.56816C15.7923 1.84316 18.7064 1.84316 20.4314 3.56816C22.1564 5.29316 22.1564 8.20729 20.4314 9.93229C20.2848 10.0785 20.0928 10.1517 19.9008 10.1517Z" fill="#ACB1C6"/>
</svg>
